<mxfile host="app.diagrams.net" agent="Mozilla/5.0 (Macintosh; Intel Mac OS X 10.15; rv:142.0) Gecko/20100101 Firefox/142.0" version="28.2.3">
  <diagram name="Side-1" id="x-d8-C41W-6xykN9uDr_">
    <mxGraphModel dx="1564" dy="2179" grid="1" gridSize="10" guides="1" tooltips="1" connect="1" arrows="1" fold="1" page="1" pageScale="1" pageWidth="827" pageHeight="1169" math="0" shadow="0">
      <root>
        <mxCell id="0" />
        <mxCell id="1" parent="0" />
        <mxCell id="r7T_JTY22EDvb1jyk4N8-3" value="" style="edgeStyle=orthogonalEdgeStyle;rounded=0;orthogonalLoop=1;jettySize=auto;html=1;" edge="1" parent="1" source="r7T_JTY22EDvb1jyk4N8-1" target="r7T_JTY22EDvb1jyk4N8-2">
          <mxGeometry relative="1" as="geometry" />
        </mxCell>
        <mxCell id="r7T_JTY22EDvb1jyk4N8-1" value="START" style="strokeWidth=2;html=1;shape=mxgraph.flowchart.start_2;whiteSpace=wrap;" vertex="1" parent="1">
          <mxGeometry x="60" y="110" width="100" height="100" as="geometry" />
        </mxCell>
        <mxCell id="r7T_JTY22EDvb1jyk4N8-5" value="" style="edgeStyle=orthogonalEdgeStyle;rounded=0;orthogonalLoop=1;jettySize=auto;html=1;" edge="1" parent="1" source="r7T_JTY22EDvb1jyk4N8-2" target="r7T_JTY22EDvb1jyk4N8-4">
          <mxGeometry relative="1" as="geometry" />
        </mxCell>
        <mxCell id="r7T_JTY22EDvb1jyk4N8-2" value="&lt;div&gt;&lt;div&gt;POST request to APIGateway endpoint&amp;nbsp;&lt;/div&gt;&lt;div&gt;/deployments&lt;/div&gt;&lt;/div&gt;" style="whiteSpace=wrap;html=1;strokeWidth=2;" vertex="1" parent="1">
          <mxGeometry x="200" y="115" width="120" height="90" as="geometry" />
        </mxCell>
        <mxCell id="r7T_JTY22EDvb1jyk4N8-7" value="" style="edgeStyle=orthogonalEdgeStyle;rounded=0;orthogonalLoop=1;jettySize=auto;html=1;" edge="1" parent="1" source="r7T_JTY22EDvb1jyk4N8-4" target="r7T_JTY22EDvb1jyk4N8-6">
          <mxGeometry relative="1" as="geometry" />
        </mxCell>
        <mxCell id="r7T_JTY22EDvb1jyk4N8-8" value="NO" style="edgeLabel;html=1;align=center;verticalAlign=middle;resizable=0;points=[];" vertex="1" connectable="0" parent="r7T_JTY22EDvb1jyk4N8-7">
          <mxGeometry x="-0.5056" y="-1" relative="1" as="geometry">
            <mxPoint as="offset" />
          </mxGeometry>
        </mxCell>
        <mxCell id="r7T_JTY22EDvb1jyk4N8-10" value="" style="edgeStyle=orthogonalEdgeStyle;rounded=0;orthogonalLoop=1;jettySize=auto;html=1;" edge="1" parent="1" source="r7T_JTY22EDvb1jyk4N8-4" target="r7T_JTY22EDvb1jyk4N8-9">
          <mxGeometry relative="1" as="geometry" />
        </mxCell>
        <mxCell id="r7T_JTY22EDvb1jyk4N8-11" value="YES" style="edgeLabel;html=1;align=center;verticalAlign=middle;resizable=0;points=[];" vertex="1" connectable="0" parent="r7T_JTY22EDvb1jyk4N8-10">
          <mxGeometry x="-0.3062" y="-2" relative="1" as="geometry">
            <mxPoint as="offset" />
          </mxGeometry>
        </mxCell>
        <mxCell id="r7T_JTY22EDvb1jyk4N8-4" value="Is user authenticated,&amp;nbsp;&lt;br&gt;and authorized to perform this action?" style="rhombus;whiteSpace=wrap;html=1;strokeWidth=2;" vertex="1" parent="1">
          <mxGeometry x="353.5" y="90" width="200" height="140" as="geometry" />
        </mxCell>
        <mxCell id="r7T_JTY22EDvb1jyk4N8-6" value="Request is denied" style="ellipse;whiteSpace=wrap;html=1;strokeWidth=2;" vertex="1" parent="1">
          <mxGeometry x="414" y="-40" width="80" height="80" as="geometry" />
        </mxCell>
        <mxCell id="r7T_JTY22EDvb1jyk4N8-13" value="" style="edgeStyle=orthogonalEdgeStyle;rounded=0;orthogonalLoop=1;jettySize=auto;html=1;" edge="1" parent="1" source="r7T_JTY22EDvb1jyk4N8-9" target="r7T_JTY22EDvb1jyk4N8-12">
          <mxGeometry relative="1" as="geometry" />
        </mxCell>
        <mxCell id="r7T_JTY22EDvb1jyk4N8-9" value="create-deployment Lambda function invoked" style="whiteSpace=wrap;html=1;strokeWidth=2;" vertex="1" parent="1">
          <mxGeometry x="610" y="130" width="120" height="60" as="geometry" />
        </mxCell>
        <mxCell id="r7T_JTY22EDvb1jyk4N8-16" value="" style="edgeStyle=orthogonalEdgeStyle;rounded=0;orthogonalLoop=1;jettySize=auto;html=1;" edge="1" parent="1" source="r7T_JTY22EDvb1jyk4N8-12" target="r7T_JTY22EDvb1jyk4N8-15">
          <mxGeometry relative="1" as="geometry" />
        </mxCell>
        <mxCell id="r7T_JTY22EDvb1jyk4N8-12" value="create-deployment Lambda issues a CreateDeployment command to Greengrass" style="whiteSpace=wrap;html=1;strokeWidth=2;" vertex="1" parent="1">
          <mxGeometry x="770" y="115" width="120" height="90" as="geometry" />
        </mxCell>
        <mxCell id="r7T_JTY22EDvb1jyk4N8-20" value="" style="edgeStyle=orthogonalEdgeStyle;rounded=0;orthogonalLoop=1;jettySize=auto;html=1;" edge="1" parent="1" source="r7T_JTY22EDvb1jyk4N8-15" target="r7T_JTY22EDvb1jyk4N8-19">
          <mxGeometry relative="1" as="geometry" />
        </mxCell>
        <mxCell id="r7T_JTY22EDvb1jyk4N8-15" value="&lt;div&gt;Greengrass uses IoT Jobs in IoT Core to initiate a deployment&lt;/div&gt;&lt;div&gt;to a device group&lt;/div&gt;" style="whiteSpace=wrap;html=1;strokeWidth=2;" vertex="1" parent="1">
          <mxGeometry x="770" y="240" width="120" height="90" as="geometry" />
        </mxCell>
        <mxCell id="r7T_JTY22EDvb1jyk4N8-22" value="" style="edgeStyle=orthogonalEdgeStyle;rounded=0;orthogonalLoop=1;jettySize=auto;html=1;" edge="1" parent="1" source="r7T_JTY22EDvb1jyk4N8-19" target="r7T_JTY22EDvb1jyk4N8-21">
          <mxGeometry relative="1" as="geometry" />
        </mxCell>
        <mxCell id="r7T_JTY22EDvb1jyk4N8-19" value="&lt;div&gt;Greengrass Core on devices receive the IoT Job, and prepares the application component,&lt;/div&gt;&lt;div&gt;pulling artifact from ECR&lt;/div&gt;" style="whiteSpace=wrap;html=1;strokeWidth=2;" vertex="1" parent="1">
          <mxGeometry x="755" y="380" width="150" height="90" as="geometry" />
        </mxCell>
        <mxCell id="r7T_JTY22EDvb1jyk4N8-24" value="" style="edgeStyle=orthogonalEdgeStyle;rounded=0;orthogonalLoop=1;jettySize=auto;html=1;" edge="1" parent="1" source="r7T_JTY22EDvb1jyk4N8-21" target="r7T_JTY22EDvb1jyk4N8-23">
          <mxGeometry relative="1" as="geometry" />
        </mxCell>
        <mxCell id="r7T_JTY22EDvb1jyk4N8-25" value="NO" style="edgeLabel;html=1;align=center;verticalAlign=middle;resizable=0;points=[];" vertex="1" connectable="0" parent="r7T_JTY22EDvb1jyk4N8-24">
          <mxGeometry x="-0.1603" y="-1" relative="1" as="geometry">
            <mxPoint as="offset" />
          </mxGeometry>
        </mxCell>
        <mxCell id="r7T_JTY22EDvb1jyk4N8-29" value="YES" style="edgeStyle=orthogonalEdgeStyle;rounded=0;orthogonalLoop=1;jettySize=auto;html=1;" edge="1" parent="1" source="r7T_JTY22EDvb1jyk4N8-21" target="r7T_JTY22EDvb1jyk4N8-28">
          <mxGeometry relative="1" as="geometry" />
        </mxCell>
        <mxCell id="r7T_JTY22EDvb1jyk4N8-21" value="Is device in&amp;nbsp;&lt;br&gt;maintenance window?" style="rhombus;whiteSpace=wrap;html=1;strokeWidth=2;" vertex="1" parent="1">
          <mxGeometry x="745" y="505" width="170" height="105" as="geometry" />
        </mxCell>
        <mxCell id="r7T_JTY22EDvb1jyk4N8-23" value="Postpone deployment activation" style="ellipse;whiteSpace=wrap;html=1;strokeWidth=2;" vertex="1" parent="1">
          <mxGeometry x="540" y="517.5" width="80" height="80" as="geometry" />
        </mxCell>
        <mxCell id="r7T_JTY22EDvb1jyk4N8-33" value="" style="edgeStyle=orthogonalEdgeStyle;rounded=0;orthogonalLoop=1;jettySize=auto;html=1;" edge="1" parent="1" source="r7T_JTY22EDvb1jyk4N8-28" target="r7T_JTY22EDvb1jyk4N8-32">
          <mxGeometry relative="1" as="geometry" />
        </mxCell>
        <mxCell id="r7T_JTY22EDvb1jyk4N8-28" value="&lt;div&gt;New component is promoted to active&lt;/div&gt;" style="whiteSpace=wrap;html=1;strokeWidth=2;" vertex="1" parent="1">
          <mxGeometry x="770" y="670" width="120" height="60" as="geometry" />
        </mxCell>
        <mxCell id="r7T_JTY22EDvb1jyk4N8-35" value="" style="edgeStyle=orthogonalEdgeStyle;rounded=0;orthogonalLoop=1;jettySize=auto;html=1;" edge="1" parent="1" source="r7T_JTY22EDvb1jyk4N8-32" target="r7T_JTY22EDvb1jyk4N8-34">
          <mxGeometry relative="1" as="geometry" />
        </mxCell>
        <mxCell id="r7T_JTY22EDvb1jyk4N8-32" value="Device will publish to&lt;br&gt;/devices/{id}/connection&lt;br&gt;topic, to confirm deployment" style="whiteSpace=wrap;html=1;strokeWidth=2;" vertex="1" parent="1">
          <mxGeometry x="770" y="760" width="120" height="90" as="geometry" />
        </mxCell>
        <mxCell id="r7T_JTY22EDvb1jyk4N8-34" value="END" style="ellipse;whiteSpace=wrap;html=1;strokeWidth=2;" vertex="1" parent="1">
          <mxGeometry x="640" y="765" width="80" height="80" as="geometry" />
        </mxCell>
        <mxCell id="r7T_JTY22EDvb1jyk4N8-36" value="As with the other flow chart, this is simplified.&lt;br&gt;Deployments should also take into consideration rollout and rollback strategies - for example canary deployments and automated rollback on failure" style="shape=note;whiteSpace=wrap;html=1;backgroundOutline=1;darkOpacity=0.05;" vertex="1" parent="1">
          <mxGeometry x="350" y="300" width="290" height="140" as="geometry" />
        </mxCell>
      </root>
    </mxGraphModel>
  </diagram>
</mxfile>
